<?xml version="1.0" standalone="no"?><!-- Generator: Gravit.io --><svg xmlns="http://www.w3.org/2000/svg" xmlns:xlink="http://www.w3.org/1999/xlink" style="isolation:isolate" viewBox="0 0 48 48" width="48" height="48"><defs><clipPath id="_clipPath_Ou8axk55qoGPwN8xJ4veiVuNVwCTuWOu"><rect x="0" y="0" width="48" height="48"/></clipPath></defs><g clip-path="url(#_clipPath_Ou8axk55qoGPwN8xJ4veiVuNVwCTuWOu)"><path d=" M 43.2 0 L 4.8 0 C 2.16 0 0 2.16 0 4.8 L 0 43.2 C 0 45.84 2.16 48 4.8 48 L 43.2 48 C 45.84 48 48 45.84 48 43.2 L 48 4.8 C 48 2.16 45.84 0 43.2 0 Z  M 40.8 4.8 L 40.8 12 L 36 12 C 34.56 12 33.6 12.96 33.6 14.4 L 33.6 19.2 L 40.8 19.2 L 40.8 26.4 L 33.6 26.4 L 33.6 43.2 L 26.4 43.2 L 26.4 26.4 L 21.6 26.4 L 21.6 19.2 L 26.4 19.2 L 26.4 13.2 C 26.4 8.64 30.24 4.8 34.8 4.8 L 40.8 4.8 Z " fill="rgb(255,255,255)"/></g></svg>