<?xml version="1.0" standalone="no"?><!-- Generator: Gravit.io --><svg xmlns="http://www.w3.org/2000/svg" xmlns:xlink="http://www.w3.org/1999/xlink" style="isolation:isolate" viewBox="0 0 48 48" width="48" height="48"><defs><clipPath id="_clipPath_6AZvz4xd5RZna6pREv66SVz9AhgH4NgD"><rect x="0" y="0" width="48" height="48"/></clipPath></defs><g clip-path="url(#_clipPath_6AZvz4xd5RZna6pREv66SVz9AhgH4NgD)"><path d=" M 43.2 0 L 4.8 0 C 2.16 0 0 2.16 0 4.8 L 0 43.2 C 0 45.84 2.16 48 4.8 48 L 43.2 48 C 45.84 48 48 45.84 48 43.2 L 48 4.8 C 48 2.16 45.84 0 43.2 0 Z  M 14.4 40.8 L 7.2 40.8 L 7.2 19.2 L 14.4 19.2 L 14.4 40.8 Z  M 10.8 15.12 C 8.4 15.12 6.48 13.2 6.48 10.8 C 6.48 8.4 8.4 6.48 10.8 6.48 C 13.2 6.48 15.12 8.4 15.12 10.8 C 15.12 13.2 13.2 15.12 10.8 15.12 Z  M 40.8 40.8 L 33.6 40.8 L 33.6 28.08 C 33.6 26.16 31.92 24.48 30 24.48 C 28.08 24.48 26.4 26.16 26.4 28.08 L 26.4 40.8 L 19.2 40.8 L 19.2 19.2 L 26.4 19.2 L 26.4 22.08 C 27.6 20.16 30.24 18.72 32.4 18.72 C 36.96 18.72 40.8 22.56 40.8 27.12 L 40.8 40.8 Z " fill="rgb(255,255,255)"/></g></svg>